<?xml version="1.0" encoding="utf-8"?>
<!-- Generator: Adobe Illustrator 24.0.0, SVG Export Plug-In . SVG Version: 6.00 Build 0)  -->
<svg version="1.1" id="Capa_1" xmlns="http://www.w3.org/2000/svg" xmlns:xlink="http://www.w3.org/1999/xlink" x="0px" y="0px"
	 viewBox="0 0 51 51" style="enable-background:new 0 0 51 51;" xml:space="preserve">
<g>
	<path d="M23.5,18.2c0,0.7,0,1.3,0,2c0,0.4,0.2,0.5,0.5,0.5c2.1,0.1,4,0.4,6,1.2c3.2,1.3,5.4,3.5,6.8,6.6c0.9,1.9,1.3,4,1.4,6.1
		c0,0.2-0.1,0.5-0.2,0.6c-0.2,0.3-0.6,0.2-0.8,0c-1.7-2.2-4.1-3.3-6.7-4.1c-2.1-0.6-4.2-0.9-6.4-0.9c-0.6,0-0.6,0-0.6,0.5
		c0,1.3,0,2.5,0,3.8c0,0.3,0,0.7-0.4,0.8c-0.4,0.1-0.6-0.1-0.8-0.4c-2.3-2.3-4.5-4.6-6.8-6.8c-0.7-0.7-1.5-1.4-2.2-2.2
		c-0.5-0.5-0.5-0.7,0-1.2c3-3,6.1-6.1,9.1-9.1c0.2-0.2,0.5-0.3,0.7-0.2c0.2,0.1,0.3,0.4,0.4,0.7C23.5,16.9,23.5,17.5,23.5,18.2z"/>
</g>
</svg>
